<svg xmlns="http://www.w3.org/2000/svg" xmlns:xlink="http://www.w3.org/1999/xlink" width="3500" zoomAndPan="magnify" viewBox="0 0 2625 1349.999938" height="1800" preserveAspectRatio="xMidYMid meet" version="1.0"><defs><g/><clipPath id="2c2336d8e9"><path d="M 152.4375 483.148438 L 568.453125 483.148438 L 568.453125 674.734375 L 152.4375 674.734375 Z M 152.4375 483.148438 " clip-rule="nonzero"/></clipPath><clipPath id="cc69cd813a"><rect x="0" width="2625" y="0" height="1158"/></clipPath></defs><g transform="matrix(1, 0, 0, 1, 0, 96)"><g clip-path="url(#cc69cd813a)"><g clip-path="url(#2c2336d8e9)"><path fill="#f8f0de" d="M 334.6875 535.21875 C 334.6875 530.011719 331.21875 526.542969 326.007812 526.542969 L 204.507812 526.542969 C 199.300781 526.542969 195.832031 530.011719 195.832031 535.21875 L 195.832031 656.71875 C 195.832031 661.925781 199.300781 665.398438 204.507812 665.398438 L 326.007812 665.398438 C 331.21875 665.398438 334.6875 661.925781 334.6875 656.71875 Z M 317.332031 648.042969 L 213.1875 648.042969 L 213.1875 543.898438 L 317.332031 543.898438 Z M 326.007812 717.46875 L 204.507812 717.46875 C 199.300781 717.46875 195.832031 720.941406 195.832031 726.148438 L 195.832031 847.648438 C 195.832031 852.855469 199.300781 856.328125 204.507812 856.328125 L 326.007812 856.328125 C 331.21875 856.328125 334.6875 852.855469 334.6875 847.648438 L 334.6875 726.148438 C 334.6875 720.941406 331.21875 717.46875 326.007812 717.46875 Z M 317.332031 838.972656 L 213.1875 838.972656 L 213.1875 734.828125 L 317.332031 734.828125 Z M 516.9375 526.542969 L 395.4375 526.542969 C 390.230469 526.542969 386.761719 530.011719 386.761719 535.21875 L 386.761719 656.71875 C 386.761719 661.925781 390.230469 665.398438 395.4375 665.398438 L 516.9375 665.398438 C 522.144531 665.398438 525.617188 661.925781 525.617188 656.71875 L 525.617188 535.21875 C 525.617188 530.011719 522.144531 526.542969 516.9375 526.542969 Z M 508.261719 648.042969 L 404.117188 648.042969 L 404.117188 543.898438 L 508.261719 543.898438 Z M 326.007812 682.757812 L 204.507812 682.757812 C 199.300781 682.757812 195.832031 686.226562 195.832031 691.433594 C 195.832031 696.640625 199.300781 700.113281 204.507812 700.113281 L 326.007812 700.113281 C 331.21875 700.113281 334.6875 696.640625 334.6875 691.433594 C 334.6875 686.226562 331.21875 682.757812 326.007812 682.757812 Z M 360.722656 665.398438 C 365.929688 665.398438 369.402344 661.925781 369.402344 656.71875 L 369.402344 535.21875 C 369.402344 530.011719 365.929688 526.542969 360.722656 526.542969 C 355.515625 526.542969 352.046875 530.011719 352.046875 535.21875 L 352.046875 656.71875 C 352.046875 661.925781 355.515625 665.398438 360.722656 665.398438 Z M 239.222656 630.683594 L 291.296875 630.683594 C 296.503906 630.683594 299.972656 627.214844 299.972656 622.007812 L 299.972656 569.933594 C 299.972656 564.726562 296.503906 561.253906 291.296875 561.253906 L 239.222656 561.253906 C 234.015625 561.253906 230.546875 564.726562 230.546875 569.933594 L 230.546875 622.007812 C 230.546875 627.214844 234.015625 630.683594 239.222656 630.683594 Z M 247.902344 578.613281 L 282.617188 578.613281 L 282.617188 613.328125 L 247.902344 613.328125 Z M 239.222656 821.613281 L 291.296875 821.613281 C 296.503906 821.613281 299.972656 818.140625 299.972656 812.933594 L 299.972656 760.863281 C 299.972656 755.65625 296.503906 752.183594 291.296875 752.183594 L 239.222656 752.183594 C 234.015625 752.183594 230.546875 755.65625 230.546875 760.863281 L 230.546875 812.933594 C 230.546875 818.140625 234.015625 821.613281 239.222656 821.613281 Z M 247.902344 769.542969 L 282.617188 769.542969 L 282.617188 804.257812 L 247.902344 804.257812 Z M 430.152344 630.683594 L 482.222656 630.683594 C 487.433594 630.683594 490.902344 627.214844 490.902344 622.007812 L 490.902344 569.933594 C 490.902344 564.726562 487.433594 561.253906 482.222656 561.253906 L 430.152344 561.253906 C 424.945312 561.253906 421.472656 564.726562 421.472656 569.933594 L 421.472656 622.007812 C 421.472656 627.214844 424.945312 630.683594 430.152344 630.683594 Z M 438.832031 578.613281 L 473.546875 578.613281 L 473.546875 613.328125 L 438.832031 613.328125 Z M 464.867188 786.898438 C 459.660156 786.898438 456.1875 790.371094 456.1875 795.578125 L 456.1875 847.648438 C 456.1875 852.855469 459.660156 856.328125 464.867188 856.328125 L 516.9375 856.328125 C 522.144531 856.328125 525.617188 852.855469 525.617188 847.648438 L 525.617188 795.578125 C 525.617188 790.371094 522.144531 786.898438 516.9375 786.898438 Z M 508.261719 838.972656 L 473.546875 838.972656 L 473.546875 804.257812 L 508.261719 804.257812 Z M 534.296875 760.863281 C 534.296875 755.65625 530.824219 752.183594 525.617188 752.183594 L 430.152344 752.183594 C 424.945312 752.183594 421.472656 755.65625 421.472656 760.863281 L 421.472656 847.648438 C 421.472656 852.855469 424.945312 856.328125 430.152344 856.328125 C 435.359375 856.328125 438.832031 852.855469 438.832031 847.648438 L 438.832031 769.542969 L 525.617188 769.542969 C 530.824219 769.542969 534.296875 766.070312 534.296875 760.863281 Z M 525.617188 726.148438 L 525.617188 691.433594 C 525.617188 686.226562 522.144531 682.757812 516.9375 682.757812 C 511.730469 682.757812 508.261719 686.226562 508.261719 691.433594 L 508.261719 726.148438 C 508.261719 731.355469 511.730469 734.828125 516.9375 734.828125 C 522.144531 734.828125 525.617188 731.355469 525.617188 726.148438 Z M 360.722656 856.328125 L 395.4375 856.328125 C 400.644531 856.328125 404.117188 852.855469 404.117188 847.648438 L 404.117188 700.113281 L 482.222656 700.113281 C 487.433594 700.113281 490.902344 696.640625 490.902344 691.433594 C 490.902344 686.226562 487.433594 682.757812 482.222656 682.757812 L 395.4375 682.757812 C 390.230469 682.757812 386.761719 686.226562 386.761719 691.433594 L 386.761719 838.972656 L 360.722656 838.972656 C 355.515625 838.972656 352.046875 842.441406 352.046875 847.648438 C 352.046875 852.855469 355.515625 856.328125 360.722656 856.328125 Z M 430.152344 734.828125 L 482.222656 734.828125 C 487.433594 734.828125 490.902344 731.355469 490.902344 726.148438 C 490.902344 720.941406 487.433594 717.46875 482.222656 717.46875 L 430.152344 717.46875 C 424.945312 717.46875 421.472656 720.941406 421.472656 726.148438 C 421.472656 731.355469 424.945312 734.828125 430.152344 734.828125 Z M 352.046875 821.613281 C 352.046875 826.820312 355.515625 830.292969 360.722656 830.292969 C 365.929688 830.292969 369.402344 826.820312 369.402344 821.613281 L 369.402344 691.433594 C 369.402344 686.226562 365.929688 682.757812 360.722656 682.757812 C 355.515625 682.757812 352.046875 686.226562 352.046875 691.433594 Z M 161.117188 587.292969 C 166.324219 587.292969 169.796875 583.820312 169.796875 578.613281 L 169.796875 526.542969 C 169.796875 511.789062 181.078125 500.503906 195.832031 500.503906 L 247.902344 500.503906 C 253.109375 500.503906 256.582031 497.035156 256.582031 491.828125 C 256.582031 486.621094 253.109375 483.148438 247.902344 483.148438 L 195.832031 483.148438 C 171.53125 483.148438 152.4375 502.242188 152.4375 526.542969 L 152.4375 578.613281 C 152.4375 583.820312 155.910156 587.292969 161.117188 587.292969 Z M 525.617188 483.148438 L 473.546875 483.148438 C 468.339844 483.148438 464.867188 486.621094 464.867188 491.828125 C 464.867188 497.035156 468.339844 500.503906 473.546875 500.503906 L 525.617188 500.503906 C 540.371094 500.503906 551.652344 511.789062 551.652344 526.542969 L 551.652344 578.613281 C 551.652344 583.820312 555.125 587.292969 560.332031 587.292969 C 565.539062 587.292969 569.011719 583.820312 569.011719 578.613281 L 569.011719 526.542969 C 569.011719 502.242188 549.917969 483.148438 525.617188 483.148438 Z M 195.832031 899.722656 L 247.902344 899.722656 C 253.109375 899.722656 256.582031 896.25 256.582031 891.042969 C 256.582031 885.835938 253.109375 882.363281 247.902344 882.363281 L 195.832031 882.363281 C 181.078125 882.363281 169.796875 871.082031 169.796875 856.328125 L 169.796875 804.257812 C 169.796875 799.050781 166.324219 795.578125 161.117188 795.578125 C 155.910156 795.578125 152.4375 799.050781 152.4375 804.257812 L 152.4375 856.328125 C 152.4375 880.628906 171.53125 899.722656 195.832031 899.722656 Z M 560.332031 795.578125 C 555.125 795.578125 551.652344 799.050781 551.652344 804.257812 L 551.652344 856.328125 C 551.652344 871.082031 540.371094 882.363281 525.617188 882.363281 L 473.546875 882.363281 C 468.339844 882.363281 464.867188 885.835938 464.867188 891.042969 C 464.867188 896.25 468.339844 899.722656 473.546875 899.722656 L 525.617188 899.722656 C 549.917969 899.722656 569.011719 880.628906 569.011719 856.328125 L 569.011719 804.257812 C 569.011719 799.050781 565.539062 795.578125 560.332031 795.578125 Z M 560.332031 795.578125 " fill-opacity="1" fill-rule="nonzero"/></g><g fill="#f8f0de" fill-opacity="1"><g transform="translate(-13.621227, 927.961326)"><g><path d="M 340.40625 10.828125 C 424.519531 49.742188 488.234375 76.8125 531.546875 92.03125 C 574.867188 107.257812 609.238281 114.875 634.65625 114.875 C 648.46875 114.875 659.925781 113.066406 669.03125 109.453125 C 678.132812 105.847656 685.195312 100.28125 690.21875 92.75 C 693.039062 88.351562 696.179688 81.132812 699.640625 71.09375 C 705.910156 51.320312 714.695312 41.4375 726 41.4375 C 732.28125 41.4375 737.378906 44.257812 741.296875 49.90625 C 745.222656 55.550781 747.1875 62.769531 747.1875 71.5625 C 747.1875 97.300781 732.828125 121.234375 704.109375 143.359375 C 675.390625 165.492188 641.566406 176.5625 602.640625 176.5625 C 577.535156 176.5625 549.835938 172.164062 519.546875 163.375 C 489.253906 154.582031 449.785156 139.046875 401.140625 116.765625 C 389.523438 111.429688 373.046875 103.894531 351.703125 94.15625 C 252.203125 48.644531 194.132812 25.890625 177.5 25.890625 C 172.789062 25.890625 168.238281 27.300781 163.84375 30.125 C 159.445312 32.957031 154.894531 37.351562 150.1875 43.3125 C 148.300781 46.132812 145.632812 50.53125 142.1875 56.5 C 131.195312 74.707031 119.113281 83.8125 105.9375 83.8125 C 98.71875 83.8125 92.59375 81.140625 87.5625 75.796875 C 82.539062 70.460938 80.03125 63.875 80.03125 56.03125 C 80.03125 37.507812 92.347656 21.421875 116.984375 7.765625 C 141.628906 -5.890625 172 -12.71875 208.09375 -12.71875 C 217.507812 -12.71875 226.535156 -12.398438 235.171875 -11.765625 C 243.804688 -11.140625 252.203125 -10.039062 260.359375 -8.46875 C 190.367188 -37.03125 135.910156 -82.226562 96.984375 -144.0625 C 58.066406 -205.90625 38.609375 -277.785156 38.609375 -359.703125 C 38.609375 -400.816406 44.253906 -439.816406 55.546875 -476.703125 C 66.847656 -513.585938 83.644531 -547.878906 105.9375 -579.578125 C 136.695312 -622.890625 176.554688 -656.550781 225.515625 -680.5625 C 274.484375 -704.570312 328.160156 -716.578125 386.546875 -716.578125 C 426.722656 -716.578125 464.703125 -710.300781 500.484375 -697.75 C 536.265625 -685.195312 569.0625 -666.675781 598.875 -642.1875 C 640.625 -607.976562 673.03125 -564.035156 696.09375 -510.359375 C 719.164062 -456.691406 730.703125 -398.785156 730.703125 -336.640625 C 730.703125 -233.367188 700.175781 -148.695312 639.125 -82.625 C 578.082031 -16.550781 499.695312 16.484375 403.96875 16.484375 C 395.175781 16.484375 385.519531 16.007812 375 15.0625 C 364.488281 14.125 352.957031 12.710938 340.40625 10.828125 Z M 636.546875 -309.328125 C 636.546875 -351.078125 631.519531 -391.175781 621.46875 -429.625 C 611.425781 -468.070312 597.148438 -501.890625 578.640625 -531.078125 C 551.640625 -573.765625 519.617188 -606.328125 482.578125 -628.765625 C 445.546875 -651.210938 405.21875 -662.4375 361.59375 -662.4375 C 292.21875 -662.4375 236.8125 -637.640625 195.375 -588.046875 C 153.945312 -538.453125 133.234375 -471.910156 133.234375 -388.421875 C 133.234375 -346.359375 138.332031 -305.628906 148.53125 -266.234375 C 158.738281 -226.847656 173.570312 -191.460938 193.03125 -160.078125 C 217.832031 -118.648438 248.125 -87.265625 283.90625 -65.921875 C 319.6875 -44.578125 360.019531 -33.90625 404.90625 -33.90625 C 475.84375 -33.90625 532.179688 -58.617188 573.921875 -108.046875 C 615.671875 -157.484375 636.546875 -224.578125 636.546875 -309.328125 Z M 636.546875 -309.328125 "/></g></g></g><g fill="#f8f0de" fill-opacity="1"><g transform="translate(842.447774, 927.961326)"><g><path d="M 170.4375 -401.140625 C 190.519531 -431.898438 211.78125 -455.519531 234.21875 -472 C 256.664062 -488.476562 278.5625 -496.71875 299.90625 -496.71875 C 317.488281 -496.71875 331.691406 -491.222656 342.515625 -480.234375 C 353.347656 -469.242188 358.765625 -454.804688 358.765625 -436.921875 C 358.765625 -421.222656 353.816406 -408.273438 343.921875 -398.078125 C 334.035156 -387.878906 321.5625 -382.78125 306.5 -382.78125 C 293 -382.78125 281.851562 -387.015625 273.0625 -395.484375 C 264.28125 -403.960938 258.789062 -415.734375 256.59375 -430.796875 C 223.320312 -420.128906 200.171875 -403.257812 187.140625 -380.1875 C 174.117188 -357.113281 167.609375 -307.128906 167.609375 -230.234375 C 167.609375 -172.472656 168.390625 -130.800781 169.953125 -105.21875 C 171.523438 -79.644531 174.039062 -64.503906 177.5 -59.796875 C 182.207031 -52.578125 193.191406 -47.710938 210.453125 -45.203125 C 216.109375 -44.566406 220.660156 -43.9375 224.109375 -43.3125 C 231.015625 -42.0625 236.503906 -39.863281 240.578125 -36.71875 C 244.660156 -33.582031 246.703125 -29.660156 246.703125 -24.953125 C 246.703125 -14.910156 237.753906 -7.613281 219.859375 -3.0625 C 201.972656 1.488281 174.039062 3.765625 136.0625 3.765625 C 102.164062 3.765625 77.757812 1.488281 62.84375 -3.0625 C 47.9375 -7.613281 40.484375 -14.910156 40.484375 -24.953125 C 40.484375 -33.109375 47.070312 -39.226562 60.25 -43.3125 C 73.4375 -47.394531 81.601562 -51.003906 84.75 -54.140625 C 89.769531 -58.535156 93.300781 -68.738281 95.34375 -84.75 C 97.382812 -100.757812 98.40625 -128.691406 98.40625 -168.546875 C 98.40625 -222.535156 97.695312 -267.34375 96.28125 -302.96875 C 94.863281 -338.59375 92.585938 -365.035156 89.453125 -382.296875 C 87.566406 -395.484375 84.425781 -404.507812 80.03125 -409.375 C 75.644531 -414.238281 66.070312 -416.671875 51.3125 -416.671875 L 42.375 -416.671875 C 37.351562 -416.671875 32.878906 -418.550781 28.953125 -422.3125 C 25.023438 -426.082031 23.0625 -430.640625 23.0625 -435.984375 C 23.0625 -441.941406 25.414062 -447.351562 30.125 -452.21875 C 34.832031 -457.082031 43.46875 -462.5 56.03125 -468.46875 C 72.03125 -476.9375 87.40625 -483.757812 102.15625 -488.9375 C 116.914062 -494.125 127.273438 -496.71875 133.234375 -496.71875 C 141.710938 -496.71875 148.304688 -489.890625 153.015625 -476.234375 C 157.722656 -462.578125 161.644531 -438.488281 164.78125 -403.96875 Z M 170.4375 -401.140625 "/></g></g></g><g fill="#f8f0de" fill-opacity="1"><g transform="translate(1290.791419, 927.961326)"><g><path d="M 67.328125 -651.609375 C 67.328125 -666.671875 72.347656 -679.300781 82.390625 -689.5 C 92.429688 -699.707031 104.832031 -704.8125 119.59375 -704.8125 C 134.34375 -704.8125 146.347656 -700.414062 155.609375 -691.625 C 164.867188 -682.84375 169.5 -671.546875 169.5 -657.734375 C 169.5 -643.609375 164.472656 -631.519531 154.421875 -621.46875 C 144.378906 -611.425781 132.140625 -606.40625 117.703125 -606.40625 C 103.578125 -606.40625 91.648438 -610.722656 81.921875 -619.359375 C 72.191406 -627.992188 67.328125 -638.742188 67.328125 -651.609375 Z M 85.6875 -183.140625 C 85.6875 -258.785156 84.742188 -314.109375 82.859375 -349.109375 C 80.972656 -384.109375 77.835938 -404.90625 73.453125 -411.5 C 70.617188 -415.894531 60.882812 -419.265625 44.25 -421.609375 C 27.613281 -423.960938 19.296875 -430.632812 19.296875 -441.625 C 19.296875 -447.90625 21.882812 -453.476562 27.0625 -458.34375 C 32.25 -463.207031 41.273438 -468.304688 54.140625 -473.640625 C 69.835938 -479.921875 85.453125 -485.019531 100.984375 -488.9375 C 116.523438 -492.863281 128.847656 -494.828125 137.953125 -494.828125 C 146.421875 -494.828125 152.378906 -492.394531 155.828125 -487.53125 C 159.285156 -482.664062 161.015625 -473.484375 161.015625 -459.984375 C 161.015625 -456.847656 160.859375 -447.75 160.546875 -432.6875 C 158.347656 -345.738281 157.25 -257.691406 157.25 -168.546875 C 157.25 -125.859375 158.191406 -97.140625 160.078125 -82.390625 C 161.960938 -67.640625 165.101562 -58.222656 169.5 -54.140625 C 172.945312 -51.003906 181.257812 -47.394531 194.4375 -43.3125 C 207.625 -39.226562 214.21875 -33.109375 214.21875 -24.953125 C 214.21875 -15.222656 206.84375 -8.003906 192.09375 -3.296875 C 177.34375 1.410156 154.113281 3.765625 122.40625 3.765625 C 89.132812 3.765625 65.046875 1.488281 50.140625 -3.0625 C 35.234375 -7.613281 27.78125 -14.910156 27.78125 -24.953125 C 27.78125 -33.109375 34.367188 -39.226562 47.546875 -43.3125 C 60.734375 -47.394531 69.050781 -51.003906 72.5 -54.140625 C 77.207031 -58.535156 80.582031 -69.753906 82.625 -87.796875 C 84.664062 -105.847656 85.6875 -137.628906 85.6875 -183.140625 Z M 85.6875 -183.140625 "/></g></g></g><g fill="#f8f0de" fill-opacity="1"><g transform="translate(1616.723249, 927.961326)"><g><path d="M 234.46875 -288.140625 C 263.96875 -334.910156 284.367188 -368.335938 295.671875 -388.421875 C 306.972656 -408.515625 312.625 -421.070312 312.625 -426.09375 C 312.625 -432.6875 306.660156 -438.492188 294.734375 -443.515625 C 282.804688 -448.535156 276.84375 -454.34375 276.84375 -460.9375 C 276.84375 -470.03125 282.488281 -476.460938 293.78125 -480.234375 C 305.082031 -484.003906 324.546875 -485.890625 352.171875 -485.890625 C 379.472656 -485.890625 398.617188 -484.003906 409.609375 -480.234375 C 420.597656 -476.460938 426.09375 -470.03125 426.09375 -460.9375 C 426.09375 -454.03125 419.96875 -448.222656 407.71875 -443.515625 C 395.476562 -438.804688 386.847656 -434.566406 381.828125 -430.796875 C 372.722656 -424.203125 360.085938 -409.132812 343.921875 -385.59375 C 327.765625 -362.050781 299.597656 -316.695312 259.421875 -249.53125 C 287.359375 -203.394531 312.390625 -163.847656 334.515625 -130.890625 C 356.640625 -97.929688 373.039062 -75.488281 383.71875 -63.5625 C 390.9375 -55.71875 401.289062 -49.046875 414.78125 -43.546875 C 428.28125 -38.054688 435.03125 -31.859375 435.03125 -24.953125 C 435.03125 -14.910156 427.578125 -7.613281 412.671875 -3.0625 C 397.765625 1.488281 373.675781 3.765625 340.40625 3.765625 C 304.300781 3.765625 278.71875 1.566406 263.65625 -2.828125 C 248.59375 -7.222656 241.0625 -14.597656 241.0625 -24.953125 C 241.0625 -29.035156 242.160156 -32.332031 244.359375 -34.84375 C 246.554688 -37.351562 251.890625 -40.175781 260.359375 -43.3125 C 261.617188 -43.9375 263.1875 -44.566406 265.0625 -45.203125 C 277.9375 -50.222656 284.375 -57.285156 284.375 -66.390625 C 284.375 -73.296875 279.664062 -84.984375 270.25 -101.453125 C 260.832031 -117.929688 238.546875 -152.222656 203.390625 -204.328125 C 172.628906 -155.367188 150.972656 -119.351562 138.421875 -96.28125 C 125.867188 -73.207031 119.59375 -58.535156 119.59375 -52.265625 C 119.59375 -46.921875 125.082031 -42.050781 136.0625 -37.65625 C 147.050781 -33.269531 152.546875 -27.78125 152.546875 -21.1875 C 152.546875 -12.082031 146.816406 -5.644531 135.359375 -1.875 C 123.898438 1.882812 104.519531 3.765625 77.21875 3.765625 C 49.90625 3.765625 30.675781 1.882812 19.53125 -1.875 C 8.394531 -5.644531 2.828125 -12.082031 2.828125 -21.1875 C 2.828125 -28.71875 9.335938 -34.835938 22.359375 -39.546875 C 35.390625 -44.253906 44.257812 -48.492188 48.96875 -52.265625 C 59.320312 -58.222656 73.285156 -73.835938 90.859375 -99.109375 C 108.441406 -124.378906 137.945312 -172.007812 179.375 -242 C 151.757812 -288.457031 127.28125 -328.242188 105.9375 -361.359375 C 84.59375 -394.472656 70.78125 -414.476562 64.5 -421.375 C 58.539062 -428.28125 49.203125 -434.398438 36.484375 -439.734375 C 23.773438 -445.078125 17.421875 -451.203125 17.421875 -458.109375 C 17.421875 -467.835938 24.640625 -474.898438 39.078125 -479.296875 C 53.515625 -483.691406 77.835938 -485.890625 112.046875 -485.890625 C 148.773438 -485.890625 174.515625 -483.769531 189.265625 -479.53125 C 204.015625 -475.289062 211.390625 -468.148438 211.390625 -458.109375 C 211.390625 -450.890625 203.617188 -444.140625 188.078125 -437.859375 C 172.546875 -431.578125 164.78125 -424.203125 164.78125 -415.734375 C 164.78125 -408.203125 170.035156 -394.78125 180.546875 -375.46875 C 191.066406 -356.164062 209.039062 -327.054688 234.46875 -288.140625 Z M 234.46875 -288.140625 "/></g></g></g><g fill="#f8f0de" fill-opacity="1"><g transform="translate(2133.334927, 927.961326)"><g><path d="M 347.9375 -286.25 C 348.25 -290.019531 348.484375 -293.941406 348.640625 -298.015625 C 348.796875 -302.097656 348.875 -308.222656 348.875 -316.390625 C 348.875 -364.410156 341.335938 -398.859375 326.265625 -419.734375 C 311.203125 -440.609375 286.722656 -451.046875 252.828125 -451.046875 C 235.566406 -451.046875 220.03125 -447.75 206.21875 -441.15625 C 192.40625 -434.5625 179.535156 -424.359375 167.609375 -410.546875 C 165.097656 -407.410156 161.332031 -402.546875 156.3125 -395.953125 C 140.613281 -373.671875 124.765625 -362.53125 108.765625 -362.53125 C 99.023438 -362.53125 91.171875 -365.507812 85.203125 -371.46875 C 79.242188 -377.4375 76.265625 -385.441406 76.265625 -395.484375 C 76.265625 -418.710938 94.234375 -440.523438 130.171875 -460.921875 C 166.117188 -481.328125 207.316406 -491.53125 253.765625 -491.53125 C 311.835938 -491.53125 354.757812 -477.09375 382.53125 -448.21875 C 410.3125 -419.34375 424.203125 -374.457031 424.203125 -313.5625 C 424.203125 -295.988281 423.890625 -272.601562 423.265625 -243.40625 C 422.640625 -214.21875 422.328125 -193.816406 422.328125 -182.203125 C 422.328125 -125.078125 423.816406 -88.742188 426.796875 -73.203125 C 429.773438 -57.671875 435.03125 -49.90625 442.5625 -49.90625 C 445.707031 -49.90625 449.710938 -50.453125 454.578125 -51.546875 C 459.441406 -52.648438 462.5 -53.203125 463.75 -53.203125 C 468.144531 -53.203125 471.519531 -51.867188 473.875 -49.203125 C 476.226562 -46.535156 477.40625 -43.003906 477.40625 -38.609375 C 477.40625 -27.617188 470.1875 -16.472656 455.75 -5.171875 C 441.3125 6.117188 426.242188 11.765625 410.546875 11.765625 C 392.035156 11.765625 371.789062 -8.320312 349.8125 -48.5 C 347.9375 -51.945312 346.367188 -54.769531 345.109375 -56.96875 L 338.515625 -56.96875 C 316.859375 -35.3125 293.945312 -19.300781 269.78125 -8.9375 C 245.613281 1.414062 218.929688 6.59375 189.734375 6.59375 C 143.285156 6.59375 106.171875 -5.957031 78.390625 -31.0625 C 50.609375 -56.175781 36.71875 -89.921875 36.71875 -132.296875 C 36.71875 -182.515625 55.15625 -221.75 92.03125 -250 C 128.914062 -278.25 180.472656 -292.375 246.703125 -292.375 C 263.335938 -292.375 280.050781 -291.820312 296.84375 -290.71875 C 313.644531 -289.625 330.675781 -288.132812 347.9375 -286.25 Z M 347.9375 -244.828125 C 331.300781 -247.648438 316 -249.6875 302.03125 -250.9375 C 288.0625 -252.195312 275.113281 -252.828125 263.1875 -252.828125 C 215.476562 -252.828125 179.300781 -243.097656 154.65625 -223.640625 C 130.019531 -204.179688 117.703125 -175.929688 117.703125 -138.890625 C 117.703125 -108.128906 126.410156 -84.035156 143.828125 -66.609375 C 161.253906 -49.191406 185.347656 -40.484375 216.109375 -40.484375 C 255.335938 -40.484375 287.113281 -52.644531 311.4375 -76.96875 C 335.769531 -101.300781 347.9375 -133.554688 347.9375 -173.734375 Z M 347.9375 -244.828125 "/></g></g></g></g></g></svg>