<svg xmlns="http://www.w3.org/2000/svg" xmlns:xlink="http://www.w3.org/1999/xlink" width="3500" zoomAndPan="magnify" viewBox="0 0 2625 1349.999938" height="1800" preserveAspectRatio="xMidYMid meet" version="1.0"><defs><g/><clipPath id="f3379b9df1"><path d="M 152.4375 579.148438 L 568.6875 579.148438 L 568.6875 771.148438 L 152.4375 771.148438 Z M 152.4375 579.148438 " clip-rule="nonzero"/></clipPath><clipPath id="5e883a36b8"><rect x="0" width="2625" y="0" height="1158"/></clipPath></defs><g clip-path="url(#f3379b9df1)"><path fill="#5a8545" d="M 334.699219 631.222656 C 334.699219 626.015625 331.230469 622.542969 326.023438 622.542969 L 204.511719 622.542969 C 199.304688 622.542969 195.832031 626.015625 195.832031 631.222656 L 195.832031 752.730469 C 195.832031 757.941406 199.304688 761.410156 204.511719 761.410156 L 326.023438 761.410156 C 331.230469 761.410156 334.699219 757.941406 334.699219 752.730469 Z M 317.34375 744.054688 L 213.191406 744.054688 L 213.191406 639.902344 L 317.34375 639.902344 Z M 326.023438 813.488281 L 204.511719 813.488281 C 199.304688 813.488281 195.832031 816.957031 195.832031 822.164062 L 195.832031 943.675781 C 195.832031 948.882812 199.304688 952.355469 204.511719 952.355469 L 326.023438 952.355469 C 331.230469 952.355469 334.699219 948.882812 334.699219 943.675781 L 334.699219 822.164062 C 334.699219 816.957031 331.230469 813.488281 326.023438 813.488281 Z M 317.34375 934.996094 L 213.191406 934.996094 L 213.191406 830.84375 L 317.34375 830.84375 Z M 516.964844 622.542969 L 395.457031 622.542969 C 390.246094 622.542969 386.777344 626.015625 386.777344 631.222656 L 386.777344 752.730469 C 386.777344 757.941406 390.246094 761.410156 395.457031 761.410156 L 516.964844 761.410156 C 522.171875 761.410156 525.644531 757.941406 525.644531 752.730469 L 525.644531 631.222656 C 525.644531 626.015625 522.171875 622.542969 516.964844 622.542969 Z M 508.285156 744.054688 L 404.132812 744.054688 L 404.132812 639.902344 L 508.285156 639.902344 Z M 326.023438 778.769531 L 204.511719 778.769531 C 199.304688 778.769531 195.832031 782.242188 195.832031 787.449219 C 195.832031 792.65625 199.304688 796.128906 204.511719 796.128906 L 326.023438 796.128906 C 331.230469 796.128906 334.699219 792.65625 334.699219 787.449219 C 334.699219 782.242188 331.230469 778.769531 326.023438 778.769531 Z M 360.738281 761.410156 C 365.945312 761.410156 369.417969 757.941406 369.417969 752.730469 L 369.417969 631.222656 C 369.417969 626.015625 365.945312 622.542969 360.738281 622.542969 C 355.53125 622.542969 352.058594 626.015625 352.058594 631.222656 L 352.058594 752.730469 C 352.058594 757.941406 355.53125 761.410156 360.738281 761.410156 Z M 239.230469 726.695312 L 291.304688 726.695312 C 296.511719 726.695312 299.984375 723.222656 299.984375 718.015625 L 299.984375 665.941406 C 299.984375 660.734375 296.511719 657.261719 291.304688 657.261719 L 239.230469 657.261719 C 234.023438 657.261719 230.550781 660.734375 230.550781 665.941406 L 230.550781 718.015625 C 230.550781 723.222656 234.023438 726.695312 239.230469 726.695312 Z M 247.910156 674.621094 L 282.625 674.621094 L 282.625 709.335938 L 247.910156 709.335938 Z M 239.230469 917.636719 L 291.304688 917.636719 C 296.511719 917.636719 299.984375 914.164062 299.984375 908.957031 L 299.984375 856.882812 C 299.984375 851.675781 296.511719 848.203125 291.304688 848.203125 L 239.230469 848.203125 C 234.023438 848.203125 230.550781 851.675781 230.550781 856.882812 L 230.550781 908.957031 C 230.550781 914.164062 234.023438 917.636719 239.230469 917.636719 Z M 247.910156 865.5625 L 282.625 865.5625 L 282.625 900.277344 L 247.910156 900.277344 Z M 430.171875 726.695312 L 482.246094 726.695312 C 487.453125 726.695312 490.925781 723.222656 490.925781 718.015625 L 490.925781 665.941406 C 490.925781 660.734375 487.453125 657.261719 482.246094 657.261719 L 430.171875 657.261719 C 424.964844 657.261719 421.492188 660.734375 421.492188 665.941406 L 421.492188 718.015625 C 421.492188 723.222656 424.964844 726.695312 430.171875 726.695312 Z M 438.851562 674.621094 L 473.566406 674.621094 L 473.566406 709.335938 L 438.851562 709.335938 Z M 464.890625 882.921875 C 459.679688 882.921875 456.210938 886.390625 456.210938 891.597656 L 456.210938 943.675781 C 456.210938 948.882812 459.679688 952.355469 464.890625 952.355469 L 516.964844 952.355469 C 522.171875 952.355469 525.644531 948.882812 525.644531 943.675781 L 525.644531 891.597656 C 525.644531 886.390625 522.171875 882.921875 516.964844 882.921875 Z M 508.285156 934.996094 L 473.566406 934.996094 L 473.566406 900.277344 L 508.285156 900.277344 Z M 534.324219 856.882812 C 534.324219 851.675781 530.851562 848.203125 525.644531 848.203125 L 430.171875 848.203125 C 424.964844 848.203125 421.492188 851.675781 421.492188 856.882812 L 421.492188 943.675781 C 421.492188 948.882812 424.964844 952.355469 430.171875 952.355469 C 435.378906 952.355469 438.851562 948.882812 438.851562 943.675781 L 438.851562 865.5625 L 525.644531 865.5625 C 530.851562 865.5625 534.324219 862.089844 534.324219 856.882812 Z M 525.644531 822.164062 L 525.644531 787.449219 C 525.644531 782.242188 522.171875 778.769531 516.964844 778.769531 C 511.757812 778.769531 508.285156 782.242188 508.285156 787.449219 L 508.285156 822.164062 C 508.285156 827.375 511.757812 830.84375 516.964844 830.84375 C 522.171875 830.84375 525.644531 827.375 525.644531 822.164062 Z M 360.738281 952.355469 L 395.457031 952.355469 C 400.664062 952.355469 404.132812 948.882812 404.132812 943.675781 L 404.132812 796.128906 L 482.246094 796.128906 C 487.453125 796.128906 490.925781 792.65625 490.925781 787.449219 C 490.925781 782.242188 487.453125 778.769531 482.246094 778.769531 L 395.457031 778.769531 C 390.246094 778.769531 386.777344 782.242188 386.777344 787.449219 L 386.777344 934.996094 L 360.738281 934.996094 C 355.53125 934.996094 352.058594 938.46875 352.058594 943.675781 C 352.058594 948.882812 355.53125 952.355469 360.738281 952.355469 Z M 430.171875 830.84375 L 482.246094 830.84375 C 487.453125 830.84375 490.925781 827.375 490.925781 822.164062 C 490.925781 816.957031 487.453125 813.488281 482.246094 813.488281 L 430.171875 813.488281 C 424.964844 813.488281 421.492188 816.957031 421.492188 822.164062 C 421.492188 827.375 424.964844 830.84375 430.171875 830.84375 Z M 352.058594 917.636719 C 352.058594 922.84375 355.53125 926.316406 360.738281 926.316406 C 365.945312 926.316406 369.417969 922.84375 369.417969 917.636719 L 369.417969 787.449219 C 369.417969 782.242188 365.945312 778.769531 360.738281 778.769531 C 355.53125 778.769531 352.058594 782.242188 352.058594 787.449219 Z M 161.117188 683.296875 C 166.324219 683.296875 169.796875 679.828125 169.796875 674.621094 L 169.796875 622.542969 C 169.796875 607.789062 181.078125 596.507812 195.832031 596.507812 L 247.910156 596.507812 C 253.117188 596.507812 256.589844 593.035156 256.589844 587.828125 C 256.589844 582.621094 253.117188 579.148438 247.910156 579.148438 L 195.832031 579.148438 C 171.53125 579.148438 152.4375 598.242188 152.4375 622.542969 L 152.4375 674.621094 C 152.4375 679.828125 155.910156 683.296875 161.117188 683.296875 Z M 525.644531 579.148438 L 473.566406 579.148438 C 468.359375 579.148438 464.890625 582.621094 464.890625 587.828125 C 464.890625 593.035156 468.359375 596.507812 473.566406 596.507812 L 525.644531 596.507812 C 540.398438 596.507812 551.679688 607.789062 551.679688 622.542969 L 551.679688 674.621094 C 551.679688 679.828125 555.152344 683.296875 560.359375 683.296875 C 565.566406 683.296875 569.039062 679.828125 569.039062 674.621094 L 569.039062 622.542969 C 569.039062 598.242188 549.945312 579.148438 525.644531 579.148438 Z M 195.832031 995.75 L 247.910156 995.75 C 253.117188 995.75 256.589844 992.277344 256.589844 987.070312 C 256.589844 981.863281 253.117188 978.390625 247.910156 978.390625 L 195.832031 978.390625 C 181.078125 978.390625 169.796875 967.109375 169.796875 952.355469 L 169.796875 900.277344 C 169.796875 895.070312 166.324219 891.597656 161.117188 891.597656 C 155.910156 891.597656 152.4375 895.070312 152.4375 900.277344 L 152.4375 952.355469 C 152.4375 976.65625 171.53125 995.75 195.832031 995.75 Z M 560.359375 891.597656 C 555.152344 891.597656 551.679688 895.070312 551.679688 900.277344 L 551.679688 952.355469 C 551.679688 967.109375 540.398438 978.390625 525.644531 978.390625 L 473.566406 978.390625 C 468.359375 978.390625 464.890625 981.863281 464.890625 987.070312 C 464.890625 992.277344 468.359375 995.75 473.566406 995.75 L 525.644531 995.75 C 549.945312 995.75 569.039062 976.65625 569.039062 952.355469 L 569.039062 900.277344 C 569.039062 895.070312 565.566406 891.597656 560.359375 891.597656 Z M 560.359375 891.597656 " fill-opacity="1" fill-rule="nonzero"/></g><g transform="matrix(1, 0, 0, 1, 0, 96)"><g clip-path="url(#5e883a36b8)"><g fill="#5a8545" fill-opacity="1"><g transform="translate(-13.621227, 927.961326)"><g><path d="M 340.40625 10.828125 C 424.519531 49.742188 488.234375 76.8125 531.546875 92.03125 C 574.867188 107.257812 609.238281 114.875 634.65625 114.875 C 648.46875 114.875 659.925781 113.066406 669.03125 109.453125 C 678.132812 105.847656 685.195312 100.28125 690.21875 92.75 C 693.039062 88.351562 696.179688 81.132812 699.640625 71.09375 C 705.910156 51.320312 714.695312 41.4375 726 41.4375 C 732.28125 41.4375 737.378906 44.257812 741.296875 49.90625 C 745.222656 55.550781 747.1875 62.769531 747.1875 71.5625 C 747.1875 97.300781 732.828125 121.234375 704.109375 143.359375 C 675.390625 165.492188 641.566406 176.5625 602.640625 176.5625 C 577.535156 176.5625 549.835938 172.164062 519.546875 163.375 C 489.253906 154.582031 449.785156 139.046875 401.140625 116.765625 C 389.523438 111.429688 373.046875 103.894531 351.703125 94.15625 C 252.203125 48.644531 194.132812 25.890625 177.5 25.890625 C 172.789062 25.890625 168.238281 27.300781 163.84375 30.125 C 159.445312 32.957031 154.894531 37.351562 150.1875 43.3125 C 148.300781 46.132812 145.632812 50.53125 142.1875 56.5 C 131.195312 74.707031 119.113281 83.8125 105.9375 83.8125 C 98.71875 83.8125 92.59375 81.140625 87.5625 75.796875 C 82.539062 70.460938 80.03125 63.875 80.03125 56.03125 C 80.03125 37.507812 92.347656 21.421875 116.984375 7.765625 C 141.628906 -5.890625 172 -12.71875 208.09375 -12.71875 C 217.507812 -12.71875 226.535156 -12.398438 235.171875 -11.765625 C 243.804688 -11.140625 252.203125 -10.039062 260.359375 -8.46875 C 190.367188 -37.03125 135.910156 -82.226562 96.984375 -144.0625 C 58.066406 -205.90625 38.609375 -277.785156 38.609375 -359.703125 C 38.609375 -400.816406 44.253906 -439.816406 55.546875 -476.703125 C 66.847656 -513.585938 83.644531 -547.878906 105.9375 -579.578125 C 136.695312 -622.890625 176.554688 -656.550781 225.515625 -680.5625 C 274.484375 -704.570312 328.160156 -716.578125 386.546875 -716.578125 C 426.722656 -716.578125 464.703125 -710.300781 500.484375 -697.75 C 536.265625 -685.195312 569.0625 -666.675781 598.875 -642.1875 C 640.625 -607.976562 673.03125 -564.035156 696.09375 -510.359375 C 719.164062 -456.691406 730.703125 -398.785156 730.703125 -336.640625 C 730.703125 -233.367188 700.175781 -148.695312 639.125 -82.625 C 578.082031 -16.550781 499.695312 16.484375 403.96875 16.484375 C 395.175781 16.484375 385.519531 16.007812 375 15.0625 C 364.488281 14.125 352.957031 12.710938 340.40625 10.828125 Z M 636.546875 -309.328125 C 636.546875 -351.078125 631.519531 -391.175781 621.46875 -429.625 C 611.425781 -468.070312 597.148438 -501.890625 578.640625 -531.078125 C 551.640625 -573.765625 519.617188 -606.328125 482.578125 -628.765625 C 445.546875 -651.210938 405.21875 -662.4375 361.59375 -662.4375 C 292.21875 -662.4375 236.8125 -637.640625 195.375 -588.046875 C 153.945312 -538.453125 133.234375 -471.910156 133.234375 -388.421875 C 133.234375 -346.359375 138.332031 -305.628906 148.53125 -266.234375 C 158.738281 -226.847656 173.570312 -191.460938 193.03125 -160.078125 C 217.832031 -118.648438 248.125 -87.265625 283.90625 -65.921875 C 319.6875 -44.578125 360.019531 -33.90625 404.90625 -33.90625 C 475.84375 -33.90625 532.179688 -58.617188 573.921875 -108.046875 C 615.671875 -157.484375 636.546875 -224.578125 636.546875 -309.328125 Z M 636.546875 -309.328125 "/></g></g></g><g fill="#5a8545" fill-opacity="1"><g transform="translate(842.447774, 927.961326)"><g><path d="M 170.4375 -401.140625 C 190.519531 -431.898438 211.78125 -455.519531 234.21875 -472 C 256.664062 -488.476562 278.5625 -496.71875 299.90625 -496.71875 C 317.488281 -496.71875 331.691406 -491.222656 342.515625 -480.234375 C 353.347656 -469.242188 358.765625 -454.804688 358.765625 -436.921875 C 358.765625 -421.222656 353.816406 -408.273438 343.921875 -398.078125 C 334.035156 -387.878906 321.5625 -382.78125 306.5 -382.78125 C 293 -382.78125 281.851562 -387.015625 273.0625 -395.484375 C 264.28125 -403.960938 258.789062 -415.734375 256.59375 -430.796875 C 223.320312 -420.128906 200.171875 -403.257812 187.140625 -380.1875 C 174.117188 -357.113281 167.609375 -307.128906 167.609375 -230.234375 C 167.609375 -172.472656 168.390625 -130.800781 169.953125 -105.21875 C 171.523438 -79.644531 174.039062 -64.503906 177.5 -59.796875 C 182.207031 -52.578125 193.191406 -47.710938 210.453125 -45.203125 C 216.109375 -44.566406 220.660156 -43.9375 224.109375 -43.3125 C 231.015625 -42.0625 236.503906 -39.863281 240.578125 -36.71875 C 244.660156 -33.582031 246.703125 -29.660156 246.703125 -24.953125 C 246.703125 -14.910156 237.753906 -7.613281 219.859375 -3.0625 C 201.972656 1.488281 174.039062 3.765625 136.0625 3.765625 C 102.164062 3.765625 77.757812 1.488281 62.84375 -3.0625 C 47.9375 -7.613281 40.484375 -14.910156 40.484375 -24.953125 C 40.484375 -33.109375 47.070312 -39.226562 60.25 -43.3125 C 73.4375 -47.394531 81.601562 -51.003906 84.75 -54.140625 C 89.769531 -58.535156 93.300781 -68.738281 95.34375 -84.75 C 97.382812 -100.757812 98.40625 -128.691406 98.40625 -168.546875 C 98.40625 -222.535156 97.695312 -267.34375 96.28125 -302.96875 C 94.863281 -338.59375 92.585938 -365.035156 89.453125 -382.296875 C 87.566406 -395.484375 84.425781 -404.507812 80.03125 -409.375 C 75.644531 -414.238281 66.070312 -416.671875 51.3125 -416.671875 L 42.375 -416.671875 C 37.351562 -416.671875 32.878906 -418.550781 28.953125 -422.3125 C 25.023438 -426.082031 23.0625 -430.640625 23.0625 -435.984375 C 23.0625 -441.941406 25.414062 -447.351562 30.125 -452.21875 C 34.832031 -457.082031 43.46875 -462.5 56.03125 -468.46875 C 72.03125 -476.9375 87.40625 -483.757812 102.15625 -488.9375 C 116.914062 -494.125 127.273438 -496.71875 133.234375 -496.71875 C 141.710938 -496.71875 148.304688 -489.890625 153.015625 -476.234375 C 157.722656 -462.578125 161.644531 -438.488281 164.78125 -403.96875 Z M 170.4375 -401.140625 "/></g></g></g><g fill="#5a8545" fill-opacity="1"><g transform="translate(1290.791419, 927.961326)"><g><path d="M 67.328125 -651.609375 C 67.328125 -666.671875 72.347656 -679.300781 82.390625 -689.5 C 92.429688 -699.707031 104.832031 -704.8125 119.59375 -704.8125 C 134.34375 -704.8125 146.347656 -700.414062 155.609375 -691.625 C 164.867188 -682.84375 169.5 -671.546875 169.5 -657.734375 C 169.5 -643.609375 164.472656 -631.519531 154.421875 -621.46875 C 144.378906 -611.425781 132.140625 -606.40625 117.703125 -606.40625 C 103.578125 -606.40625 91.648438 -610.722656 81.921875 -619.359375 C 72.191406 -627.992188 67.328125 -638.742188 67.328125 -651.609375 Z M 85.6875 -183.140625 C 85.6875 -258.785156 84.742188 -314.109375 82.859375 -349.109375 C 80.972656 -384.109375 77.835938 -404.90625 73.453125 -411.5 C 70.617188 -415.894531 60.882812 -419.265625 44.25 -421.609375 C 27.613281 -423.960938 19.296875 -430.632812 19.296875 -441.625 C 19.296875 -447.90625 21.882812 -453.476562 27.0625 -458.34375 C 32.25 -463.207031 41.273438 -468.304688 54.140625 -473.640625 C 69.835938 -479.921875 85.453125 -485.019531 100.984375 -488.9375 C 116.523438 -492.863281 128.847656 -494.828125 137.953125 -494.828125 C 146.421875 -494.828125 152.378906 -492.394531 155.828125 -487.53125 C 159.285156 -482.664062 161.015625 -473.484375 161.015625 -459.984375 C 161.015625 -456.847656 160.859375 -447.75 160.546875 -432.6875 C 158.347656 -345.738281 157.25 -257.691406 157.25 -168.546875 C 157.25 -125.859375 158.191406 -97.140625 160.078125 -82.390625 C 161.960938 -67.640625 165.101562 -58.222656 169.5 -54.140625 C 172.945312 -51.003906 181.257812 -47.394531 194.4375 -43.3125 C 207.625 -39.226562 214.21875 -33.109375 214.21875 -24.953125 C 214.21875 -15.222656 206.84375 -8.003906 192.09375 -3.296875 C 177.34375 1.410156 154.113281 3.765625 122.40625 3.765625 C 89.132812 3.765625 65.046875 1.488281 50.140625 -3.0625 C 35.234375 -7.613281 27.78125 -14.910156 27.78125 -24.953125 C 27.78125 -33.109375 34.367188 -39.226562 47.546875 -43.3125 C 60.734375 -47.394531 69.050781 -51.003906 72.5 -54.140625 C 77.207031 -58.535156 80.582031 -69.753906 82.625 -87.796875 C 84.664062 -105.847656 85.6875 -137.628906 85.6875 -183.140625 Z M 85.6875 -183.140625 "/></g></g></g><g fill="#5a8545" fill-opacity="1"><g transform="translate(1616.723249, 927.961326)"><g><path d="M 234.46875 -288.140625 C 263.96875 -334.910156 284.367188 -368.335938 295.671875 -388.421875 C 306.972656 -408.515625 312.625 -421.070312 312.625 -426.09375 C 312.625 -432.6875 306.660156 -438.492188 294.734375 -443.515625 C 282.804688 -448.535156 276.84375 -454.34375 276.84375 -460.9375 C 276.84375 -470.03125 282.488281 -476.460938 293.78125 -480.234375 C 305.082031 -484.003906 324.546875 -485.890625 352.171875 -485.890625 C 379.472656 -485.890625 398.617188 -484.003906 409.609375 -480.234375 C 420.597656 -476.460938 426.09375 -470.03125 426.09375 -460.9375 C 426.09375 -454.03125 419.96875 -448.222656 407.71875 -443.515625 C 395.476562 -438.804688 386.847656 -434.566406 381.828125 -430.796875 C 372.722656 -424.203125 360.085938 -409.132812 343.921875 -385.59375 C 327.765625 -362.050781 299.597656 -316.695312 259.421875 -249.53125 C 287.359375 -203.394531 312.390625 -163.847656 334.515625 -130.890625 C 356.640625 -97.929688 373.039062 -75.488281 383.71875 -63.5625 C 390.9375 -55.71875 401.289062 -49.046875 414.78125 -43.546875 C 428.28125 -38.054688 435.03125 -31.859375 435.03125 -24.953125 C 435.03125 -14.910156 427.578125 -7.613281 412.671875 -3.0625 C 397.765625 1.488281 373.675781 3.765625 340.40625 3.765625 C 304.300781 3.765625 278.71875 1.566406 263.65625 -2.828125 C 248.59375 -7.222656 241.0625 -14.597656 241.0625 -24.953125 C 241.0625 -29.035156 242.160156 -32.332031 244.359375 -34.84375 C 246.554688 -37.351562 251.890625 -40.175781 260.359375 -43.3125 C 261.617188 -43.9375 263.1875 -44.566406 265.0625 -45.203125 C 277.9375 -50.222656 284.375 -57.285156 284.375 -66.390625 C 284.375 -73.296875 279.664062 -84.984375 270.25 -101.453125 C 260.832031 -117.929688 238.546875 -152.222656 203.390625 -204.328125 C 172.628906 -155.367188 150.972656 -119.351562 138.421875 -96.28125 C 125.867188 -73.207031 119.59375 -58.535156 119.59375 -52.265625 C 119.59375 -46.921875 125.082031 -42.050781 136.0625 -37.65625 C 147.050781 -33.269531 152.546875 -27.78125 152.546875 -21.1875 C 152.546875 -12.082031 146.816406 -5.644531 135.359375 -1.875 C 123.898438 1.882812 104.519531 3.765625 77.21875 3.765625 C 49.90625 3.765625 30.675781 1.882812 19.53125 -1.875 C 8.394531 -5.644531 2.828125 -12.082031 2.828125 -21.1875 C 2.828125 -28.71875 9.335938 -34.835938 22.359375 -39.546875 C 35.390625 -44.253906 44.257812 -48.492188 48.96875 -52.265625 C 59.320312 -58.222656 73.285156 -73.835938 90.859375 -99.109375 C 108.441406 -124.378906 137.945312 -172.007812 179.375 -242 C 151.757812 -288.457031 127.28125 -328.242188 105.9375 -361.359375 C 84.59375 -394.472656 70.78125 -414.476562 64.5 -421.375 C 58.539062 -428.28125 49.203125 -434.398438 36.484375 -439.734375 C 23.773438 -445.078125 17.421875 -451.203125 17.421875 -458.109375 C 17.421875 -467.835938 24.640625 -474.898438 39.078125 -479.296875 C 53.515625 -483.691406 77.835938 -485.890625 112.046875 -485.890625 C 148.773438 -485.890625 174.515625 -483.769531 189.265625 -479.53125 C 204.015625 -475.289062 211.390625 -468.148438 211.390625 -458.109375 C 211.390625 -450.890625 203.617188 -444.140625 188.078125 -437.859375 C 172.546875 -431.578125 164.78125 -424.203125 164.78125 -415.734375 C 164.78125 -408.203125 170.035156 -394.78125 180.546875 -375.46875 C 191.066406 -356.164062 209.039062 -327.054688 234.46875 -288.140625 Z M 234.46875 -288.140625 "/></g></g></g><g fill="#5a8545" fill-opacity="1"><g transform="translate(2133.334927, 927.961326)"><g><path d="M 347.9375 -286.25 C 348.25 -290.019531 348.484375 -293.941406 348.640625 -298.015625 C 348.796875 -302.097656 348.875 -308.222656 348.875 -316.390625 C 348.875 -364.410156 341.335938 -398.859375 326.265625 -419.734375 C 311.203125 -440.609375 286.722656 -451.046875 252.828125 -451.046875 C 235.566406 -451.046875 220.03125 -447.75 206.21875 -441.15625 C 192.40625 -434.5625 179.535156 -424.359375 167.609375 -410.546875 C 165.097656 -407.410156 161.332031 -402.546875 156.3125 -395.953125 C 140.613281 -373.671875 124.765625 -362.53125 108.765625 -362.53125 C 99.023438 -362.53125 91.171875 -365.507812 85.203125 -371.46875 C 79.242188 -377.4375 76.265625 -385.441406 76.265625 -395.484375 C 76.265625 -418.710938 94.234375 -440.523438 130.171875 -460.921875 C 166.117188 -481.328125 207.316406 -491.53125 253.765625 -491.53125 C 311.835938 -491.53125 354.757812 -477.09375 382.53125 -448.21875 C 410.3125 -419.34375 424.203125 -374.457031 424.203125 -313.5625 C 424.203125 -295.988281 423.890625 -272.601562 423.265625 -243.40625 C 422.640625 -214.21875 422.328125 -193.816406 422.328125 -182.203125 C 422.328125 -125.078125 423.816406 -88.742188 426.796875 -73.203125 C 429.773438 -57.671875 435.03125 -49.90625 442.5625 -49.90625 C 445.707031 -49.90625 449.710938 -50.453125 454.578125 -51.546875 C 459.441406 -52.648438 462.5 -53.203125 463.75 -53.203125 C 468.144531 -53.203125 471.519531 -51.867188 473.875 -49.203125 C 476.226562 -46.535156 477.40625 -43.003906 477.40625 -38.609375 C 477.40625 -27.617188 470.1875 -16.472656 455.75 -5.171875 C 441.3125 6.117188 426.242188 11.765625 410.546875 11.765625 C 392.035156 11.765625 371.789062 -8.320312 349.8125 -48.5 C 347.9375 -51.945312 346.367188 -54.769531 345.109375 -56.96875 L 338.515625 -56.96875 C 316.859375 -35.3125 293.945312 -19.300781 269.78125 -8.9375 C 245.613281 1.414062 218.929688 6.59375 189.734375 6.59375 C 143.285156 6.59375 106.171875 -5.957031 78.390625 -31.0625 C 50.609375 -56.175781 36.71875 -89.921875 36.71875 -132.296875 C 36.71875 -182.515625 55.15625 -221.75 92.03125 -250 C 128.914062 -278.25 180.472656 -292.375 246.703125 -292.375 C 263.335938 -292.375 280.050781 -291.820312 296.84375 -290.71875 C 313.644531 -289.625 330.675781 -288.132812 347.9375 -286.25 Z M 347.9375 -244.828125 C 331.300781 -247.648438 316 -249.6875 302.03125 -250.9375 C 288.0625 -252.195312 275.113281 -252.828125 263.1875 -252.828125 C 215.476562 -252.828125 179.300781 -243.097656 154.65625 -223.640625 C 130.019531 -204.179688 117.703125 -175.929688 117.703125 -138.890625 C 117.703125 -108.128906 126.410156 -84.035156 143.828125 -66.609375 C 161.253906 -49.191406 185.347656 -40.484375 216.109375 -40.484375 C 255.335938 -40.484375 287.113281 -52.644531 311.4375 -76.96875 C 335.769531 -101.300781 347.9375 -133.554688 347.9375 -173.734375 Z M 347.9375 -244.828125 "/></g></g></g></g></g></svg>