<svg xmlns="http://www.w3.org/2000/svg" xmlns:xlink="http://www.w3.org/1999/xlink" width="2000" zoomAndPan="magnify" viewBox="0 0 1500 1499.999933" height="2000" preserveAspectRatio="xMidYMid meet" version="1.0"><defs><g/><clipPath id="d64f6186f4"><rect x="0" width="1197" y="0" height="1444"/></clipPath><clipPath id="ab96ce4b74"><path d="M 459.160156 501.605469 L 1041 501.605469 L 1041 769.355469 L 459.160156 769.355469 Z M 459.160156 501.605469 " clip-rule="nonzero"/></clipPath></defs><g transform="matrix(1, 0, 0, 1, 220, 0.000000000000112861)"><g clip-path="url(#d64f6186f4)"><g fill="#5a8545" fill-opacity="1"><g transform="translate(0.095615, 1122.664332)"><g><path d="M 475.28125 15.125 C 592.726562 69.457031 681.6875 107.25 742.15625 128.5 C 802.632812 149.757812 850.625 160.390625 886.125 160.390625 C 905.40625 160.390625 921.398438 157.867188 934.109375 152.828125 C 946.816406 147.796875 956.679688 140.019531 963.703125 129.5 C 967.640625 123.363281 972.019531 113.285156 976.84375 99.265625 C 985.601562 71.648438 997.875 57.84375 1013.65625 57.84375 C 1022.414062 57.84375 1029.535156 61.785156 1035.015625 69.671875 C 1040.492188 77.566406 1043.234375 87.648438 1043.234375 99.921875 C 1043.234375 135.859375 1023.179688 169.273438 983.078125 200.171875 C 942.984375 231.066406 895.765625 246.515625 841.421875 246.515625 C 806.367188 246.515625 767.695312 240.378906 725.40625 228.109375 C 683.113281 215.835938 628.003906 194.144531 560.078125 163.03125 C 543.859375 155.570312 520.847656 145.050781 491.046875 131.46875 C 352.128906 67.925781 271.054688 36.15625 247.828125 36.15625 C 241.253906 36.15625 234.898438 38.125 228.765625 42.0625 C 222.628906 46.007812 216.273438 52.148438 209.703125 60.484375 C 207.066406 64.421875 203.34375 70.554688 198.53125 78.890625 C 183.1875 104.304688 166.3125 117.015625 147.90625 117.015625 C 137.820312 117.015625 129.273438 113.285156 122.265625 105.828125 C 115.253906 98.378906 111.75 89.175781 111.75 78.21875 C 111.75 52.363281 128.945312 29.90625 163.34375 10.84375 C 197.75 -8.21875 240.15625 -17.75 290.5625 -17.75 C 303.707031 -17.75 316.304688 -17.3125 328.359375 -16.4375 C 340.410156 -15.5625 352.128906 -14.023438 363.515625 -11.828125 C 265.796875 -51.710938 189.765625 -114.820312 135.421875 -201.15625 C 81.078125 -287.488281 53.90625 -387.84375 53.90625 -502.21875 C 53.90625 -559.632812 61.789062 -614.085938 77.5625 -665.578125 C 93.34375 -717.078125 116.789062 -764.957031 147.90625 -809.21875 C 190.851562 -869.695312 246.507812 -916.695312 314.875 -950.21875 C 383.238281 -983.75 458.179688 -1000.515625 539.703125 -1000.515625 C 595.796875 -1000.515625 648.820312 -991.75 698.78125 -974.21875 C 748.738281 -956.6875 794.535156 -930.828125 836.171875 -896.640625 C 894.453125 -848.867188 939.695312 -787.515625 971.90625 -712.578125 C 1004.125 -637.640625 1020.234375 -556.785156 1020.234375 -470.015625 C 1020.234375 -325.835938 977.613281 -207.625 892.375 -115.375 C 807.132812 -23.125 697.679688 23 564.015625 23 C 551.742188 23 538.265625 22.34375 523.578125 21.03125 C 508.898438 19.71875 492.800781 17.75 475.28125 15.125 Z M 888.75 -431.890625 C 888.75 -490.171875 881.738281 -546.15625 867.71875 -599.84375 C 853.695312 -653.53125 833.757812 -700.75 807.90625 -741.5 C 770.207031 -801.101562 725.503906 -846.570312 673.796875 -877.90625 C 622.085938 -909.238281 565.773438 -924.90625 504.859375 -924.90625 C 408.003906 -924.90625 330.648438 -890.285156 272.796875 -821.046875 C 214.953125 -751.804688 186.03125 -658.898438 186.03125 -542.328125 C 186.03125 -483.597656 193.148438 -426.734375 207.390625 -371.734375 C 221.640625 -316.734375 242.347656 -267.320312 269.515625 -223.5 C 304.140625 -165.65625 346.429688 -121.832031 396.390625 -92.03125 C 446.347656 -62.226562 502.660156 -47.328125 565.328125 -47.328125 C 664.367188 -47.328125 743.03125 -81.835938 801.3125 -150.859375 C 859.601562 -219.890625 888.75 -313.566406 888.75 -431.890625 Z M 888.75 -431.890625 "/></g></g></g></g></g><g clip-path="url(#ab96ce4b74)"><path fill="#5a8545" d="M 713.640625 574.3125 C 713.640625 567.042969 708.796875 562.195312 701.523438 562.195312 L 531.871094 562.195312 C 524.597656 562.195312 519.75 567.042969 519.75 574.3125 L 519.75 743.96875 C 519.75 751.238281 524.597656 756.085938 531.871094 756.085938 L 701.523438 756.085938 C 708.796875 756.085938 713.640625 751.238281 713.640625 743.96875 Z M 689.40625 731.851562 L 543.988281 731.851562 L 543.988281 586.433594 L 689.40625 586.433594 Z M 701.523438 828.796875 L 531.871094 828.796875 C 524.597656 828.796875 519.75 833.644531 519.75 840.914062 L 519.75 1010.566406 C 519.75 1017.839844 524.597656 1022.6875 531.871094 1022.6875 L 701.523438 1022.6875 C 708.796875 1022.6875 713.640625 1017.839844 713.640625 1010.566406 L 713.640625 840.914062 C 713.640625 833.644531 708.796875 828.796875 701.523438 828.796875 Z M 689.40625 998.449219 L 543.988281 998.449219 L 543.988281 853.03125 L 689.40625 853.03125 Z M 968.125 562.195312 L 798.46875 562.195312 C 791.199219 562.195312 786.351562 567.042969 786.351562 574.3125 L 786.351562 743.96875 C 786.351562 751.238281 791.199219 756.085938 798.46875 756.085938 L 968.125 756.085938 C 975.394531 756.085938 980.242188 751.238281 980.242188 743.96875 L 980.242188 574.3125 C 980.242188 567.042969 975.394531 562.195312 968.125 562.195312 Z M 956.003906 731.851562 L 810.585938 731.851562 L 810.585938 586.433594 L 956.003906 586.433594 Z M 701.523438 780.324219 L 531.871094 780.324219 C 524.597656 780.324219 519.75 785.171875 519.75 792.441406 C 519.75 799.710938 524.597656 804.558594 531.871094 804.558594 L 701.523438 804.558594 C 708.796875 804.558594 713.640625 799.710938 713.640625 792.441406 C 713.640625 785.171875 708.796875 780.324219 701.523438 780.324219 Z M 749.996094 756.085938 C 757.269531 756.085938 762.113281 751.238281 762.113281 743.96875 L 762.113281 574.3125 C 762.113281 567.042969 757.269531 562.195312 749.996094 562.195312 C 742.726562 562.195312 737.878906 567.042969 737.878906 574.3125 L 737.878906 743.96875 C 737.878906 751.238281 742.726562 756.085938 749.996094 756.085938 Z M 580.34375 707.613281 L 653.050781 707.613281 C 660.324219 707.613281 665.167969 702.765625 665.167969 695.496094 L 665.167969 622.785156 C 665.167969 615.515625 660.324219 610.667969 653.050781 610.667969 L 580.34375 610.667969 C 573.070312 610.667969 568.222656 615.515625 568.222656 622.785156 L 568.222656 695.496094 C 568.222656 702.765625 573.070312 707.613281 580.34375 707.613281 Z M 592.460938 634.90625 L 640.933594 634.90625 L 640.933594 683.378906 L 592.460938 683.378906 Z M 580.34375 974.214844 L 653.050781 974.214844 C 660.324219 974.214844 665.167969 969.367188 665.167969 962.09375 L 665.167969 889.386719 C 665.167969 882.117188 660.324219 877.269531 653.050781 877.269531 L 580.34375 877.269531 C 573.070312 877.269531 568.222656 882.117188 568.222656 889.386719 L 568.222656 962.09375 C 568.222656 969.367188 573.070312 974.214844 580.34375 974.214844 Z M 592.460938 901.503906 L 640.933594 901.503906 L 640.933594 949.976562 L 592.460938 949.976562 Z M 846.941406 707.613281 L 919.652344 707.613281 C 926.921875 707.613281 931.769531 702.765625 931.769531 695.496094 L 931.769531 622.785156 C 931.769531 615.515625 926.921875 610.667969 919.652344 610.667969 L 846.941406 610.667969 C 839.671875 610.667969 834.824219 615.515625 834.824219 622.785156 L 834.824219 695.496094 C 834.824219 702.765625 839.671875 707.613281 846.941406 707.613281 Z M 859.058594 634.90625 L 907.53125 634.90625 L 907.53125 683.378906 L 859.058594 683.378906 Z M 895.414062 925.742188 C 888.144531 925.742188 883.296875 930.589844 883.296875 937.859375 L 883.296875 1010.566406 C 883.296875 1017.839844 888.144531 1022.6875 895.414062 1022.6875 L 968.125 1022.6875 C 975.394531 1022.6875 980.242188 1017.839844 980.242188 1010.566406 L 980.242188 937.859375 C 980.242188 930.589844 975.394531 925.742188 968.125 925.742188 Z M 956.003906 998.449219 L 907.53125 998.449219 L 907.53125 949.976562 L 956.003906 949.976562 Z M 992.359375 889.386719 C 992.359375 882.117188 987.511719 877.269531 980.242188 877.269531 L 846.941406 877.269531 C 839.671875 877.269531 834.824219 882.117188 834.824219 889.386719 L 834.824219 1010.566406 C 834.824219 1017.839844 839.671875 1022.6875 846.941406 1022.6875 C 854.214844 1022.6875 859.058594 1017.839844 859.058594 1010.566406 L 859.058594 901.503906 L 980.242188 901.503906 C 987.511719 901.503906 992.359375 896.65625 992.359375 889.386719 Z M 980.242188 840.914062 L 980.242188 792.441406 C 980.242188 785.171875 975.394531 780.324219 968.125 780.324219 C 960.851562 780.324219 956.003906 785.171875 956.003906 792.441406 L 956.003906 840.914062 C 956.003906 848.183594 960.851562 853.03125 968.125 853.03125 C 975.394531 853.03125 980.242188 848.183594 980.242188 840.914062 Z M 749.996094 1022.6875 L 798.46875 1022.6875 C 805.742188 1022.6875 810.585938 1017.839844 810.585938 1010.566406 L 810.585938 804.558594 L 919.652344 804.558594 C 926.921875 804.558594 931.769531 799.710938 931.769531 792.441406 C 931.769531 785.171875 926.921875 780.324219 919.652344 780.324219 L 798.46875 780.324219 C 791.199219 780.324219 786.351562 785.171875 786.351562 792.441406 L 786.351562 998.449219 L 749.996094 998.449219 C 742.726562 998.449219 737.878906 1003.296875 737.878906 1010.566406 C 737.878906 1017.839844 742.726562 1022.6875 749.996094 1022.6875 Z M 846.941406 853.03125 L 919.652344 853.03125 C 926.921875 853.03125 931.769531 848.183594 931.769531 840.914062 C 931.769531 833.644531 926.921875 828.796875 919.652344 828.796875 L 846.941406 828.796875 C 839.671875 828.796875 834.824219 833.644531 834.824219 840.914062 C 834.824219 848.183594 839.671875 853.03125 846.941406 853.03125 Z M 737.878906 974.214844 C 737.878906 981.484375 742.726562 986.332031 749.996094 986.332031 C 757.269531 986.332031 762.113281 981.484375 762.113281 974.214844 L 762.113281 792.441406 C 762.113281 785.171875 757.269531 780.324219 749.996094 780.324219 C 742.726562 780.324219 737.878906 785.171875 737.878906 792.441406 Z M 471.277344 647.023438 C 478.550781 647.023438 483.398438 642.175781 483.398438 634.90625 L 483.398438 562.195312 C 483.398438 541.59375 499.152344 525.839844 519.75 525.839844 L 592.460938 525.839844 C 599.730469 525.839844 604.578125 520.996094 604.578125 513.722656 C 604.578125 506.453125 599.730469 501.605469 592.460938 501.605469 L 519.75 501.605469 C 485.820312 501.605469 459.160156 528.265625 459.160156 562.195312 L 459.160156 634.90625 C 459.160156 642.175781 464.007812 647.023438 471.277344 647.023438 Z M 980.242188 501.605469 L 907.53125 501.605469 C 900.261719 501.605469 895.414062 506.453125 895.414062 513.722656 C 895.414062 520.996094 900.261719 525.839844 907.53125 525.839844 L 980.242188 525.839844 C 1000.84375 525.839844 1016.597656 541.59375 1016.597656 562.195312 L 1016.597656 634.90625 C 1016.597656 642.175781 1021.445312 647.023438 1028.714844 647.023438 C 1035.984375 647.023438 1040.832031 642.175781 1040.832031 634.90625 L 1040.832031 562.195312 C 1040.832031 528.265625 1014.171875 501.605469 980.242188 501.605469 Z M 519.75 1083.277344 L 592.460938 1083.277344 C 599.730469 1083.277344 604.578125 1078.429688 604.578125 1071.160156 C 604.578125 1063.886719 599.730469 1059.039062 592.460938 1059.039062 L 519.75 1059.039062 C 499.152344 1059.039062 483.398438 1043.289062 483.398438 1022.6875 L 483.398438 949.976562 C 483.398438 942.707031 478.550781 937.859375 471.277344 937.859375 C 464.007812 937.859375 459.160156 942.707031 459.160156 949.976562 L 459.160156 1022.6875 C 459.160156 1056.617188 485.820312 1083.277344 519.75 1083.277344 Z M 1028.714844 937.859375 C 1021.445312 937.859375 1016.597656 942.707031 1016.597656 949.976562 L 1016.597656 1022.6875 C 1016.597656 1043.289062 1000.84375 1059.039062 980.242188 1059.039062 L 907.53125 1059.039062 C 900.261719 1059.039062 895.414062 1063.886719 895.414062 1071.160156 C 895.414062 1078.429688 900.261719 1083.277344 907.53125 1083.277344 L 980.242188 1083.277344 C 1014.171875 1083.277344 1040.832031 1056.617188 1040.832031 1022.6875 L 1040.832031 949.976562 C 1040.832031 942.707031 1035.984375 937.859375 1028.714844 937.859375 Z M 1028.714844 937.859375 " fill-opacity="1" fill-rule="nonzero"/></g></svg>